<?xml version="1.0" encoding="UTF-8" standalone="no"?>
<!DOCTYPE svg PUBLIC "-//W3C//DTD SVG 1.1//EN"
 "http://www.w3.org/Graphics/SVG/1.1/DTD/svg11.dtd">
<!-- Generated by graphviz version 2.26.3 (20100126.1600)
 -->
<!-- Title: pipeline Pages: 1 -->
<svg width="610pt" height="70pt"
 viewBox="0.00 0.00 610.00 70.00" xmlns="http://www.w3.org/2000/svg" xmlns:xlink="http://www.w3.org/1999/xlink">
<g id="graph1" class="graph" transform="scale(1 1) rotate(0) translate(4 66)">
<title>pipeline</title>
<polygon fill="white" stroke="white" points="-4,5 -4,-66 607,-66 607,5 -4,5"/>
<text text-anchor="middle" x="301" y="-9.4" font-family="Times Roman,serif" font-size="14.00">pipeline</text>
<!-- feature_extraction -->
<g id="node1" class="node"><title>feature_extraction</title>
<polygon fill="none" stroke="blue" points="145,-62 1,-62 1,-26 145,-26 145,-62"/>
<text text-anchor="middle" x="73" y="-40.4" font-family="Times Roman,serif" font-size="14.00">feature_extraction</text>
</g>
<!-- k_means -->
<g id="node2" class="node"><title>k_means</title>
<polygon fill="none" stroke="blue" points="259,-62 183,-62 183,-26 259,-26 259,-62"/>
<text text-anchor="middle" x="221" y="-40.4" font-family="Times Roman,serif" font-size="14.00">k_means</text>
</g>
<!-- feature_extraction&#45;&gt;k_means -->
<g id="edge2" class="edge"><title>feature_extraction&#45;&gt;k_means</title>
<path fill="none" stroke="black" d="M145.699,-44C154.638,-44 163.603,-44 172.07,-44"/>
<polygon fill="black" stroke="black" points="172.118,-47.5001 182.118,-44 172.118,-40.5001 172.118,-47.5001"/>
</g>
<!-- vector_quantization -->
<g id="node3" class="node"><title>vector_quantization</title>
<polygon fill="none" stroke="blue" points="451,-62 297,-62 297,-26 451,-26 451,-62"/>
<text text-anchor="middle" x="374" y="-40.4" font-family="Times Roman,serif" font-size="14.00">vector_quantization</text>
</g>
<!-- k_means&#45;&gt;vector_quantization -->
<g id="edge3" class="edge"><title>k_means&#45;&gt;vector_quantization</title>
<path fill="none" stroke="black" d="M259.608,-44C267.865,-44 276.909,-44 286.18,-44"/>
<polygon fill="black" stroke="black" points="286.302,-47.5001 296.302,-44 286.302,-40.5001 286.302,-47.5001"/>
</g>
<!-- centroids -->
<g id="node4" class="node"><title>centroids</title>
<ellipse fill="none" stroke="blue" cx="545" cy="-44" rx="56.0679" ry="18.3848"/>
<text text-anchor="middle" x="545" y="-40.4" font-family="Times Roman,serif" font-size="14.00">centroids</text>
</g>
<!-- vector_quantization&#45;&gt;centroids -->
<g id="edge4" class="edge"><title>vector_quantization&#45;&gt;centroids</title>
<path fill="none" stroke="black" d="M451.994,-44C460.699,-44 469.508,-44 478.057,-44"/>
<polygon fill="black" stroke="black" points="478.331,-47.5001 488.331,-44 478.331,-40.5001 478.331,-47.5001"/>
</g>
</g>
</svg>
